<svg width="32" height="32" viewBox="0 0 32 32" fill="none" xmlns="http://www.w3.org/2000/svg">
  <rect width="32" height="32" rx="8" fill="url(#gradient)"/>
  <path d="M8 24V8h4c2.5 0 4.5 2 4.5 4.5 0 1.2-.5 2.3-1.3 3.1.8.8 1.3 1.9 1.3 3.1 0 2.5-2 4.3-4.5 4.3H8zm4-9.5c.8 0 1.5-.7 1.5-1.5S12.8 11.5 12 11.5H11v3h1zm0 6c1.1 0 2-.9 2-2s-.9-2-2-2H11v4h1z" fill="white"/>
  <path d="M18 8v16h7v-3h-4V8h-3z" fill="white"/>
  <defs>
    <linearGradient id="gradient" x1="0" y1="0" x2="32" y2="32" gradientUnits="userSpaceOnUse">
      <stop stop-color="#9333EA"/>
      <stop offset="1" stop-color="#2563EB"/>
    </linearGradient>
  </defs>
</svg>